<svg width="40" height="36" viewBox="0 0 40 36" fill="none" xmlns="http://www.w3.org/2000/svg">
<path d="M34 6H6C2.6863 6 0 8.6863 0 12V17.4417L13.6748 22H26.3252L40 17.4417V12C40 8.6863 37.3137 6 34 6Z" fill="#00A0E3"/>
<path d="M16 6V4H24V6H28V4C27.9975 1.7919 26.2081 0.00252 24 0H16C13.7919 0.00252 12.0025 1.7919 12 4V6H16ZM13.6748 22L0 17.4417V30C0.00362 33.3122 2.68778 35.9964 6 36H34C37.3122 35.9964 39.9964 33.3122 40 30V17.4417L26.3252 22H13.6748Z" fill="#00A0E3"/>
<rect opacity="0.45" x="13" y="18" width="13" height="4" fill="white"/>
<rect opacity="0.45" y="16" width="40" height="2" fill="white"/>
</svg>
