<svg width="45" height="39" viewBox="0 0 45 39" fill="none" xmlns="http://www.w3.org/2000/svg">
<path d="M22.502 29.9999C22.2408 29.9999 21.9843 29.9317 21.7576 29.8021L8.62695 22.2974C8.51286 22.2315 8.38342 22.1969 8.25168 22.1969C8.11993 22.1969 7.99052 22.2317 7.87647 22.2977C7.76243 22.3636 7.66777 22.4585 7.60202 22.5726C7.53627 22.6868 7.50176 22.8163 7.50195 22.948V29.9999C7.50173 30.2676 7.57316 30.5305 7.70884 30.7613C7.84451 30.9921 8.03948 31.1824 8.27352 31.3124L21.7735 38.8124C21.9963 38.9362 22.247 39.0011 22.502 39.0011C22.7569 39.0011 23.0076 38.9362 23.2304 38.8124L36.7304 31.3124C36.9644 31.1824 37.1594 30.9921 37.2951 30.7613C37.4307 30.5305 37.5022 30.2676 37.502 29.9999V22.948C37.5021 22.8163 37.4676 22.6868 37.4019 22.5726C37.3361 22.4585 37.2415 22.3636 37.1274 22.2977C37.0134 22.2317 36.884 22.1969 36.7522 22.1969C36.6205 22.1969 36.491 22.2315 36.377 22.2974L23.2463 29.8021C23.0197 29.9317 22.7631 29.9999 22.502 29.9999Z" fill="#00A0E3"/>
<path d="M44.9942 13.3593C44.9942 13.3593 44.9942 13.3518 44.9942 13.349C44.97 13.1112 44.8893 12.8827 44.7588 12.6824C44.6283 12.4822 44.4519 12.316 44.2442 12.1977L23.2442 0.197731C23.0175 0.0681571 22.761 0 22.4999 0C22.2388 0 21.9822 0.0681571 21.7555 0.197731L0.755482 12.1977C0.525969 12.329 0.335216 12.5185 0.202545 12.7472C0.0698746 12.9759 0 13.2355 0 13.4999C0 13.7643 0.0698746 14.024 0.202545 14.2527C0.335216 14.4813 0.525969 14.6709 0.755482 14.8021L21.7555 26.8021C21.9822 26.9317 22.2388 26.9998 22.4999 26.9998C22.761 26.9998 23.0175 26.9317 23.2442 26.8021L41.7205 16.2449C41.749 16.2284 41.7814 16.2198 41.8144 16.2198C41.8474 16.2198 41.8798 16.2286 41.9083 16.2451C41.9368 16.2617 41.9605 16.2854 41.9769 16.314C41.9933 16.3426 42.0019 16.3751 42.0017 16.408V29.9577C42.0017 30.7649 42.6224 31.4577 43.4295 31.498C43.6324 31.5078 43.835 31.4763 44.0253 31.4054C44.2156 31.3346 44.3895 31.2258 44.5365 31.0857C44.6835 30.9456 44.8005 30.7772 44.8805 30.5905C44.9605 30.4039 45.0017 30.203 45.0017 29.9999V13.4999C45.0016 13.4529 44.9991 13.406 44.9942 13.3593Z" fill="#00A0E3"/>
</svg>
