<svg width="48" height="48" viewBox="0 0 48 48" fill="none" xmlns="http://www.w3.org/2000/svg">
<path d="M24.0004 25.6001C23.1167 25.6001 22.4004 26.3164 22.4004 27.2001C22.4004 28.0837 23.1167 28.8001 24.0004 28.8001C24.884 28.8001 25.6004 28.0837 25.6004 27.2001C25.6004 26.3164 24.884 25.6001 24.0004 25.6001Z" fill="#00A0E3"/>
<path fill-rule="evenodd" clip-rule="evenodd" d="M38.4 19.8111L25.6 13.4111V9.6H35.2V0H22.4V13.4111L9.6 19.8111V25.6H3.2V44.8H0V48H19.2V35.2H28.8V48H48V44.8H44.8V25.6H38.4V19.8111ZM41.6 44.8V28.8H38.4V44.8H41.6ZM9.6 44.8H6.4V28.8H9.6V44.8ZM19.2 27.2C19.2 24.549 21.349 22.4 24 22.4C26.651 22.4 28.8 24.549 28.8 27.2C28.8 29.851 26.651 32 24 32C21.349 32 19.2 29.851 19.2 27.2Z" fill="#00A0E3"/>
<path d="M25.6004 47.9999V38.3999H22.4004V47.9999H25.6004Z" fill="#00A0E3"/>
</svg>
